<?xml version="1.0" encoding="utf-8"?>
<!-- Generator: Adobe Illustrator 16.0.0, SVG Export Plug-In . SVG Version: 6.00 Build 0)  -->
<!DOCTYPE svg PUBLIC "-//W3C//DTD SVG 1.1//EN" "http://www.w3.org/Graphics/SVG/1.1/DTD/svg11.dtd">
<svg version="1.1" id="Layer_1" xmlns="http://www.w3.org/2000/svg" xmlns:xlink="http://www.w3.org/1999/xlink" x="0px" y="0px"
	 width="900px" height="600px" viewBox="230 286 980 440"  xml:space="preserve">
<g>
	<g>
		<defs>
			<rect id="SVGID_1_" x="229.88" y="220.234" width="980" height="460"/>
		</defs>
		<defs>
			<path id="SVGID_2_" d="M229.88,579.629v100c0,0,490-100,980,0v-100C1209.88,579.629,719.88,472.991,229.88,579.629
				L229.88,579.629z M229.88,579.629"/>
		</defs>
		<defs>
			<rect id="SVGID_3_" x="230" y="-111.766" width="979.92" height="792"/>
		</defs>
		<clipPath id="SVGID_4_">
			<use xlink:href="#SVGID_1_"  overflow="visible"/>
		</clipPath>
		<clipPath id="SVGID_5_" clip-path="url(#SVGID_4_)">
			<use xlink:href="#SVGID_2_"  overflow="visible"/>
		</clipPath>
		<clipPath id="SVGID_6_" clip-path="url(#SVGID_5_)">
			<use xlink:href="#SVGID_3_"  overflow="visible"/>
		</clipPath>
		<path clip-path="url(#SVGID_6_)" fill-rule="evenodd" clip-rule="evenodd" fill="#073A59" d="M224.88,527.234h990v157.395h-990
			V527.234z M224.88,527.234"/>
	</g>
	<g>
		<defs>
			<rect id="SVGID_7_" x="229.88" y="220.234" width="980" height="460"/>
		</defs>
		<defs>
			<path id="SVGID_8_" d="M896.775,570.179c90.63,6.337,164.817,1.202,165.704-11.47c0.886-12.671-71.865-28.081-162.495-34.419
				c-90.63-6.337-164.817-1.202-165.704,11.47C733.395,548.431,806.146,563.841,896.775,570.179L896.775,570.179z M896.775,570.179"
				/>
		</defs>
		<defs>
			<path id="SVGID_9_" d="M229.88,579.629v100c0,0,490-100,980,0v-100C1209.88,579.629,719.88,472.991,229.88,579.629
				L229.88,579.629z M229.88,579.629"/>
		</defs>
		<defs>
			<rect id="SVGID_10_" x="230" y="-111.766" width="979.92" height="792"/>
		</defs>
		<clipPath id="SVGID_11_">
			<use xlink:href="#SVGID_7_"  overflow="visible"/>
		</clipPath>
		<clipPath id="SVGID_12_" clip-path="url(#SVGID_11_)">
			<use xlink:href="#SVGID_8_"  overflow="visible"/>
		</clipPath>
		<clipPath id="SVGID_13_" clip-path="url(#SVGID_12_)">
			<use xlink:href="#SVGID_9_"  overflow="visible"/>
		</clipPath>
		<clipPath id="SVGID_14_" clip-path="url(#SVGID_13_)">
			<use xlink:href="#SVGID_10_"  overflow="visible"/>
		</clipPath>
		<path clip-path="url(#SVGID_14_)" fill-rule="evenodd" clip-rule="evenodd" fill="#012338" d="M731.246,507.479l338.174,23.647
			l-3.906,55.864L727.34,563.343L731.246,507.479z M731.246,507.479"/>
	</g>
	<g>
		<defs>
			<rect id="SVGID_15_" x="229.88" y="220.234" width="980" height="460"/>
		</defs>
		<defs>
			<path id="SVGID_16_" d="M967.094,420.803c-2.212-7.486-7.726-14.111-18.979-14.951l-20.527-1.436l-35.081-2.453l-20.884-1.46
				c-11.21-0.731-17.593,5.062-20.875,12.164l-17.224,37.1c-5.833,0.353-16.544,6.524-17.438,19.574l-3.256,46.552l15.854,1.109
				l-1.222,17.473c-1.371,19.097,24.054,20.646,25.366,1.773l1.222-17.473l47.424,5.307l47.701,1.346l-1.222,17.473
				c-1.261,18.876,24.077,20.876,25.43,1.777l1.222-17.473l15.791,1.104l3.256-46.552c0.867-13.052-8.888-20.655-14.668-21.82
				L967.094,420.803L967.094,420.803z M848.415,480.077c-4.422-0.296-7.75-4.129-7.424-8.533c0.292-4.438,4.122-7.773,8.54-7.427
				c4.409,0.271,7.737,4.106,7.421,8.543C856.65,477.065,852.819,480.396,848.415,480.077L848.415,480.077L848.415,480.077z
				 M906.371,454.057l-0.12-0.008l-57.739-4.037l13.091-28.853c1.624-4.112,3.898-6.977,8.779-6.709l38.45,2.688l0.12,0.009
				l38.573,2.697c4.795,0.408,6.654,3.561,7.754,7.864l8.95,30.394L906.371,454.057L906.371,454.057L906.371,454.057z
				 M960.18,487.893c-4.432-0.297-7.745-4.129-7.461-8.536c0.334-4.435,4.149-7.771,8.577-7.424c4.356,0.267,7.667,4.102,7.384,8.54
				C968.344,484.876,964.533,488.209,960.18,487.893L960.18,487.893z M866.373,489.353c35.939,22.742,74.514,5.211,74.514,5.211
				l4.005,10.706c-43.404,18.616-83.795-5.859-83.795-5.859L866.373,489.353z M866.373,489.353"/>
		</defs>
		<defs>
			<rect id="SVGID_17_" x="230" y="-111.766" width="979.92" height="792"/>
		</defs>
		<clipPath id="SVGID_18_">
			<use xlink:href="#SVGID_15_"  overflow="visible"/>
		</clipPath>
		<clipPath id="SVGID_19_" clip-path="url(#SVGID_18_)">
			<use xlink:href="#SVGID_16_"  overflow="visible"/>
		</clipPath>
		<clipPath id="SVGID_20_" clip-path="url(#SVGID_19_)">
			<use xlink:href="#SVGID_17_"  overflow="visible"/>
		</clipPath>
		<path clip-path="url(#SVGID_20_)" fill-rule="evenodd" clip-rule="evenodd" fill="#4895A3" d="M816.506,391.637l187.542,13.114
			l-11.23,160.607l-187.542-13.114L816.506,391.637z M816.506,391.637"/>
	</g>
	<g>
		<defs>
			<rect id="SVGID_21_" x="229.88" y="220.234" width="980" height="460"/>
		</defs>
		<defs>
			<path id="SVGID_22_" d="M804.872,548.206l-18.876-1.32l14.418-206.193l-60.379-4.222l1.331-19.033l60.006,4.196l1.997-28.551
				l-60.007-4.195l-5.23-16.305l-25.362-1.773c0,0-32.305-50.606-28.375-49.8c235.547,48.348,475.529,33.252,475.529,33.252
				l-35.029,45.366l-22.191-1.552l-10.619,15.196l-60.237-4.212l-1.996,28.55l60.237,4.212l-1.331,19.033l-60.234-4.212
				l-14.418,206.193l-19.021-1.33l14.419-206.193L819.29,342.013L804.872,548.206z M820.252,323.732l190.534,13.323l2.023-28.929
				l-190.535-13.324L820.252,323.732z M820.252,323.732"/>
		</defs>
		<defs>
			<rect id="SVGID_23_" x="230" y="-111.766" width="979.92" height="792"/>
		</defs>
		<clipPath id="SVGID_24_">
			<use xlink:href="#SVGID_21_"  overflow="visible"/>
		</clipPath>
		<clipPath id="SVGID_25_" clip-path="url(#SVGID_24_)">
			<use xlink:href="#SVGID_22_"  overflow="visible"/>
		</clipPath>
		<clipPath id="SVGID_26_" clip-path="url(#SVGID_25_)">
			<use xlink:href="#SVGID_23_"  overflow="visible"/>
		</clipPath>
		<path clip-path="url(#SVGID_26_)" fill-rule="evenodd" clip-rule="evenodd" fill="#993124" d="M679.449,215.647l485.814,33.971
			l-22.881,327.201l-485.813-33.972L679.449,215.647z M679.449,215.647"/>
	</g>
	<g>
		<defs>
			<rect id="SVGID_27_" x="229.88" y="220.234" width="980" height="460"/>
		</defs>
		<defs>
			<path id="SVGID_28_" d="M910.13,299.944l-2.118,30.3l16.958,1.186l2.119-30.3L910.13,299.944L910.13,299.944z M910.13,299.944"/>
		</defs>
		<defs>
			<rect id="SVGID_29_" x="230" y="-111.766" width="979.92" height="792"/>
		</defs>
		<clipPath id="SVGID_30_">
			<use xlink:href="#SVGID_27_"  overflow="visible"/>
		</clipPath>
		<clipPath id="SVGID_31_" clip-path="url(#SVGID_30_)">
			<use xlink:href="#SVGID_28_"  overflow="visible"/>
		</clipPath>
		<clipPath id="SVGID_32_" clip-path="url(#SVGID_31_)">
			<use xlink:href="#SVGID_29_"  overflow="visible"/>
		</clipPath>
		<path clip-path="url(#SVGID_32_)" fill-rule="evenodd" clip-rule="evenodd" fill="#993124" d="M905.491,294.607l26.935,1.884
			l-2.816,40.275l-26.935-1.884L905.491,294.607z M905.491,294.607"/>
	</g>
</g>
</svg>
