<?xml version="1.0" encoding="UTF-8" standalone="no"?>
<svg width="14px" height="14px" viewBox="0 0 15 19" version="1.1" xmlns="http://www.w3.org/2000/svg" xmlns:xlink="http://www.w3.org/1999/xlink" xmlns:sketch="http://www.bohemiancoding.com/sketch/ns">
    <title>cellphone</title>
    <description>Created with Sketch (http://www.bohemiancoding.com/sketch)</description>
    <defs></defs>
    <g id="Page-1" stroke="none" stroke-width="1" fill="none" fill-rule="evenodd" sketch:type="MSPage">
        <g id="Artboard-1" sketch:type="MSArtboardGroup" transform="translate(-21.000000, -16.000000)" fill="#999">
            <path d="M35.26875,18.7114583 C35.4006951,20.8621635 35.4666667,23.1249881 35.4666667,25.5 C35.4666667,27.8750119 35.4006951,30.1378365 35.26875,32.2885417 C35.242361,32.8954891 35.0180577,33.4265602 34.5958333,33.8817708 C34.173609,34.3369814 33.665628,34.6041663 33.071875,34.6833333 C31.6072843,34.8944455 30.0833413,35 28.5,35 C26.9166588,35 25.3927157,34.8944455 23.928125,34.6833333 C23.334372,34.6041663 22.826391,34.3369814 22.4041667,33.8817708 C21.9819423,33.4265602 21.757639,32.8954891 21.73125,32.2885417 C21.5993049,30.1642255 21.5333333,27.9014009 21.5333333,25.5 C21.5333333,23.1249881 21.5993049,20.8621635 21.73125,18.7114583 C21.757639,18.1045109 21.9819423,17.5767384 22.4041667,17.128125 C22.826391,16.6795116 23.334372,16.4090282 23.928125,16.3166667 C25.3927157,16.1055545 26.9166588,16 28.5,16 C30.0833413,16 31.6072843,16.1055545 33.071875,16.3166667 C33.665628,16.4090282 34.173609,16.6795116 34.5958333,17.128125 C35.0180577,17.5767384 35.242361,18.1045109 35.26875,18.7114583 C35.26875,18.7114583 35.242361,18.1045109 35.26875,18.7114583 Z M24.0864583,19.2260417 C24.0072913,20.6906323 23.9874998,22.1486039 24.0270833,23.6 C24.0402778,23.7847231 24.1062494,23.9364577 24.225,24.0552083 C24.3437506,24.1739589 24.488888,24.2333333 24.6604167,24.2333333 L32.3395833,24.2333333 C32.511112,24.2333333 32.6562494,24.1739589 32.775,24.0552083 C32.8937506,23.9364577 32.9597222,23.7847231 32.9729167,23.6 C33.0125002,22.0826313 32.9861116,20.6246598 32.89375,19.2260417 C32.89375,19.0809021 32.8409727,18.9489589 32.7354167,18.8302083 C32.6298606,18.7114577 32.4979175,18.6454862 32.3395833,18.6322917 C30.9937433,18.4871521 29.713895,18.4145833 28.5,18.4145833 C27.286105,18.4145833 26.0062567,18.4871521 24.6604167,18.6322917 C24.5020825,18.6454862 24.3701394,18.7114577 24.2645833,18.8302083 C24.1590272,18.9489589 24.0996528,19.0809021 24.0864583,19.2260417 C24.0864583,19.2260417 24.0996528,19.0809021 24.0864583,19.2260417 Z M24.7197917,32.625 C25.115627,32.625 25.4520819,32.4864597 25.7291667,32.209375 C26.0062514,31.9322903 26.1447917,31.5958353 26.1447917,31.2 C26.1447917,30.8041647 26.0062514,30.4677097 25.7291667,30.190625 C25.4520819,29.9135403 25.115627,29.775 24.7197917,29.775 C24.3239564,29.775 23.9842028,29.9135403 23.7005208,30.190625 C23.4168389,30.4677097 23.275,30.8041647 23.275,31.2 C23.275,31.5958353 23.4168389,31.9322903 23.7005208,32.209375 C23.9842028,32.4864597 24.3239564,32.625 24.7197917,32.625 C24.7197917,32.625 24.3239564,32.625 24.7197917,32.625 Z M25.9666667,28.5083333 L25.9666667,26.2916667 C25.9666667,26.1597216 25.9138894,26.0541671 25.8083333,25.975 C25.7027772,25.9090274 25.5906256,25.9090274 25.471875,25.975 L23.4135417,27.0833333 C23.2947911,27.1493059 23.2354167,27.2548604 23.2354167,27.4 C23.2354167,27.5451396 23.2947911,27.6506941 23.4135417,27.7166667 L25.471875,28.825 C25.524653,28.851389 25.5774303,28.8645833 25.6302083,28.8645833 C25.6961809,28.8645833 25.7555553,28.8447919 25.8083333,28.8052083 C25.9138894,28.7392358 25.9666667,28.6402784 25.9666667,28.5083333 C25.9666667,28.5083333 25.9666667,28.6402784 25.9666667,28.5083333 Z M28.5197917,32.625 C28.915627,32.625 29.2520819,32.4864597 29.5291667,32.209375 C29.8062514,31.9322903 29.9447917,31.5958353 29.9447917,31.2 C29.9447917,30.8041647 29.8062514,30.4677097 29.5291667,30.190625 C29.2520819,29.9135403 28.915627,29.775 28.5197917,29.775 C28.1239564,29.775 27.7842028,29.9135403 27.5005208,30.190625 C27.2168389,30.4677097 27.075,30.8041647 27.075,31.2 C27.075,31.5958353 27.2168389,31.9322903 27.5005208,32.209375 C27.7842028,32.4864597 28.1239564,32.625 28.5197917,32.625 C28.5197917,32.625 28.1239564,32.625 28.5197917,32.625 Z M28.5197917,28.825 C28.915627,28.825 29.2520819,28.6864597 29.5291667,28.409375 C29.8062514,28.1322903 29.9447917,27.7958353 29.9447917,27.4 C29.9447917,27.0041647 29.8062514,26.6677097 29.5291667,26.390625 C29.2520819,26.1135403 28.915627,25.975 28.5197917,25.975 C28.1239564,25.975 27.7842028,26.1135403 27.5005208,26.390625 C27.2168389,26.6677097 27.075,27.0041647 27.075,27.4 C27.075,27.7958353 27.2168389,28.1322903 27.5005208,28.409375 C27.7842028,28.6864597 28.1239564,28.825 28.5197917,28.825 C28.5197917,28.825 28.1239564,28.825 28.5197917,28.825 Z M32.3197917,32.625 C32.715627,32.625 33.0520819,32.4864597 33.3291667,32.209375 C33.6062514,31.9322903 33.7447917,31.5958353 33.7447917,31.2 C33.7447917,30.8041647 33.6062514,30.4677097 33.3291667,30.190625 C33.0520819,29.9135403 32.715627,29.775 32.3197917,29.775 C31.9239564,29.775 31.5842028,29.9135403 31.3005208,30.190625 C31.0168389,30.4677097 30.875,30.8041647 30.875,31.2 C30.875,31.5958353 31.0168389,31.9322903 31.3005208,32.209375 C31.5842028,32.4864597 31.9239564,32.625 32.3197917,32.625 C32.3197917,32.625 31.9239564,32.625 32.3197917,32.625 Z M33.5666667,27.7166667 C33.6986118,27.6506941 33.7645833,27.5451396 33.7645833,27.4 C33.7645833,27.2548604 33.6986118,27.1493059 33.5666667,27.0833333 L31.528125,25.975 C31.4093744,25.9090274 31.2972228,25.9090274 31.1916667,25.975 C31.0861106,26.0541671 31.0333333,26.1597216 31.0333333,26.2916667 L31.0333333,28.5083333 C31.0333333,28.6402784 31.0861106,28.7392358 31.1916667,28.8052083 C31.2444447,28.8447919 31.3038191,28.8645833 31.3697917,28.8645833 C31.3961807,28.8645833 31.4489579,28.851389 31.528125,28.825 C31.528125,28.825 31.4489579,28.851389 31.528125,28.825 L33.5666667,27.7166667 Z M33.5666667,27.7166667" id="cellphone" sketch:type="MSShapeGroup"></path>
        </g>
    </g>
</svg>